<mxfile host="app.diagrams.net" modified="2022-03-13T11:01:24.554Z" agent="5.0 (Macintosh; Intel Mac OS X 10_15_7) AppleWebKit/537.36 (KHTML, like Gecko) Chrome/98.0.4758.109 Safari/537.36" etag="N7aolxnK93NQrMjluD2x" version="17.1.1" type="github">
  <diagram id="d8PLCpCWK5KChwIpnZl2" name="Page-1">
    <mxGraphModel dx="1055" dy="712" grid="1" gridSize="10" guides="1" tooltips="1" connect="1" arrows="1" fold="1" page="1" pageScale="1" pageWidth="1169" pageHeight="827" math="0" shadow="0">
      <root>
        <mxCell id="0" />
        <mxCell id="1" parent="0" />
        <mxCell id="HCptvA-KU4coDuSBJ7c2-33" value="" style="ellipse;whiteSpace=wrap;html=1;dashed=1;fontSize=18;strokeWidth=1;" parent="1" vertex="1">
          <mxGeometry x="210" y="230" width="690" height="340" as="geometry" />
        </mxCell>
        <mxCell id="HCptvA-KU4coDuSBJ7c2-8" style="rounded=0;orthogonalLoop=1;jettySize=auto;html=1;exitX=0.5;exitY=0;exitDx=0;exitDy=0;entryX=0.5;entryY=1;entryDx=0;entryDy=0;horizontal=1;strokeWidth=1;fontStyle=0;startArrow=classic;startFill=1;" parent="1" source="HCptvA-KU4coDuSBJ7c2-1" target="HCptvA-KU4coDuSBJ7c2-3" edge="1">
          <mxGeometry relative="1" as="geometry" />
        </mxCell>
        <mxCell id="HCptvA-KU4coDuSBJ7c2-14" style="edgeStyle=none;rounded=0;orthogonalLoop=1;jettySize=auto;html=1;entryX=0.145;entryY=0;entryDx=0;entryDy=4.35;entryPerimeter=0;endArrow=classic;endFill=1;startArrow=classic;startFill=1;horizontal=1;strokeWidth=1;fontStyle=0;exitX=1;exitY=0.5;exitDx=0;exitDy=0;" parent="1" source="HCptvA-KU4coDuSBJ7c2-1" target="HCptvA-KU4coDuSBJ7c2-7" edge="1">
          <mxGeometry relative="1" as="geometry" />
        </mxCell>
        <mxCell id="HCptvA-KU4coDuSBJ7c2-1" value="R1" style="rounded=1;whiteSpace=wrap;html=1;horizontal=1;strokeWidth=1;fontStyle=0;fontSize=18;fillColor=#d5e8d4;strokeColor=#82b366;" parent="1" vertex="1">
          <mxGeometry x="280" y="340" width="120" height="60" as="geometry" />
        </mxCell>
        <mxCell id="HCptvA-KU4coDuSBJ7c2-9" style="edgeStyle=none;rounded=0;orthogonalLoop=1;jettySize=auto;html=1;exitX=0.25;exitY=0;exitDx=0;exitDy=0;entryX=0.5;entryY=1;entryDx=0;entryDy=0;horizontal=1;strokeWidth=1;fontStyle=0;startArrow=classic;startFill=1;" parent="1" source="HCptvA-KU4coDuSBJ7c2-25" target="HCptvA-KU4coDuSBJ7c2-4" edge="1">
          <mxGeometry relative="1" as="geometry" />
        </mxCell>
        <mxCell id="HCptvA-KU4coDuSBJ7c2-13" style="edgeStyle=none;orthogonalLoop=1;jettySize=auto;html=1;exitX=0;exitY=0.5;exitDx=0;exitDy=0;entryX=0.855;entryY=0;entryDx=0;entryDy=4.35;entryPerimeter=0;endArrow=classic;endFill=1;startArrow=classic;startFill=1;targetPerimeterSpacing=0;jumpStyle=arc;rounded=0;strokeWidth=1;horizontal=1;fontStyle=0;endSize=6;sketch=0;shadow=0;" parent="1" source="HCptvA-KU4coDuSBJ7c2-2" target="HCptvA-KU4coDuSBJ7c2-7" edge="1">
          <mxGeometry relative="1" as="geometry" />
        </mxCell>
        <mxCell id="HCptvA-KU4coDuSBJ7c2-2" value="R3" style="rounded=1;whiteSpace=wrap;html=1;horizontal=1;strokeWidth=1;fontStyle=0;fontSize=18;fillColor=#d5e8d4;strokeColor=#82b366;" parent="1" vertex="1">
          <mxGeometry x="720" y="340" width="120" height="60" as="geometry" />
        </mxCell>
        <mxCell id="HCptvA-KU4coDuSBJ7c2-3" value="C1" style="rounded=1;whiteSpace=wrap;html=1;fontSize=18;horizontal=1;strokeWidth=1;fontStyle=0;fillColor=#dae8fc;strokeColor=#6c8ebf;" parent="1" vertex="1">
          <mxGeometry x="160" y="100" width="120" height="60" as="geometry" />
        </mxCell>
        <mxCell id="HCptvA-KU4coDuSBJ7c2-4" value="C2" style="rounded=1;whiteSpace=wrap;html=1;fontSize=18;horizontal=1;strokeWidth=1;fontStyle=0;fillColor=#dae8fc;strokeColor=#6c8ebf;" parent="1" vertex="1">
          <mxGeometry x="320" y="100" width="120" height="60" as="geometry" />
        </mxCell>
        <mxCell id="HCptvA-KU4coDuSBJ7c2-10" style="edgeStyle=none;rounded=0;orthogonalLoop=1;jettySize=auto;html=1;exitX=0.5;exitY=1;exitDx=0;exitDy=0;horizontal=1;strokeWidth=1;fontStyle=0;startArrow=classic;startFill=1;" parent="1" source="HCptvA-KU4coDuSBJ7c2-5" target="HCptvA-KU4coDuSBJ7c2-2" edge="1">
          <mxGeometry relative="1" as="geometry">
            <mxPoint x="970" y="410" as="targetPoint" />
          </mxGeometry>
        </mxCell>
        <mxCell id="HCptvA-KU4coDuSBJ7c2-5" value="S1" style="rounded=1;whiteSpace=wrap;html=1;fontSize=18;horizontal=1;strokeWidth=1;fontStyle=0;fillColor=#dae8fc;strokeColor=#6c8ebf;" parent="1" vertex="1">
          <mxGeometry x="840" y="100" width="120" height="60" as="geometry" />
        </mxCell>
        <mxCell id="HCptvA-KU4coDuSBJ7c2-11" style="edgeStyle=none;rounded=0;orthogonalLoop=1;jettySize=auto;html=1;exitX=0.5;exitY=1;exitDx=0;exitDy=0;entryX=0.75;entryY=0;entryDx=0;entryDy=0;horizontal=1;strokeWidth=1;fontStyle=0;startArrow=classic;startFill=1;" parent="1" source="HCptvA-KU4coDuSBJ7c2-6" target="HCptvA-KU4coDuSBJ7c2-25" edge="1">
          <mxGeometry relative="1" as="geometry" />
        </mxCell>
        <mxCell id="HCptvA-KU4coDuSBJ7c2-6" value="S2" style="rounded=1;whiteSpace=wrap;html=1;fontSize=18;horizontal=1;strokeWidth=1;fontStyle=0;fillColor=#dae8fc;strokeColor=#6c8ebf;" parent="1" vertex="1">
          <mxGeometry x="680" y="100" width="120" height="60" as="geometry" />
        </mxCell>
        <mxCell id="HCptvA-KU4coDuSBJ7c2-7" value="" style="shape=cylinder3;whiteSpace=wrap;html=1;boundedLbl=1;backgroundOutline=1;size=15;horizontal=1;strokeWidth=1;fontStyle=0;fillColor=#ffe6cc;strokeColor=#d79b00;" parent="1" vertex="1">
          <mxGeometry x="530" y="440" width="60" height="80" as="geometry" />
        </mxCell>
        <mxCell id="HCptvA-KU4coDuSBJ7c2-15" value="事件/注册信息" style="text;html=1;resizable=0;autosize=1;align=center;verticalAlign=middle;points=[];fillColor=none;strokeColor=none;rounded=0;fontSize=18;fontStyle=0;strokeWidth=1;" parent="1" vertex="1">
          <mxGeometry x="500" y="530" width="130" height="30" as="geometry" />
        </mxCell>
        <mxCell id="HCptvA-KU4coDuSBJ7c2-17" value="写入事件" style="text;html=1;resizable=0;autosize=1;align=center;verticalAlign=middle;points=[];fillColor=none;strokeColor=none;rounded=0;fontSize=18;rotation=0;strokeWidth=1;fontStyle=0" parent="1" vertex="1">
          <mxGeometry x="515" y="370" width="90" height="30" as="geometry" />
        </mxCell>
        <mxCell id="HCptvA-KU4coDuSBJ7c2-18" value="轮询事件" style="text;html=1;resizable=0;autosize=1;align=center;verticalAlign=middle;points=[];fillColor=none;strokeColor=none;rounded=0;fontSize=18;rotation=30;strokeWidth=1;fontStyle=0" parent="1" vertex="1">
          <mxGeometry x="410" y="410" width="90" height="30" as="geometry" />
        </mxCell>
        <mxCell id="HCptvA-KU4coDuSBJ7c2-38" style="edgeStyle=none;rounded=0;sketch=0;jumpStyle=arc;orthogonalLoop=1;jettySize=auto;html=1;exitX=0.5;exitY=1;exitDx=0;exitDy=0;shadow=0;fontSize=18;startArrow=classic;startFill=1;endArrow=classic;endFill=1;endSize=6;targetPerimeterSpacing=0;strokeWidth=1;" parent="1" source="HCptvA-KU4coDuSBJ7c2-25" target="HCptvA-KU4coDuSBJ7c2-7" edge="1">
          <mxGeometry relative="1" as="geometry" />
        </mxCell>
        <mxCell id="HCptvA-KU4coDuSBJ7c2-25" value="R2" style="rounded=1;whiteSpace=wrap;html=1;horizontal=1;strokeWidth=1;fontStyle=0;fontSize=18;fillColor=#d5e8d4;strokeColor=#82b366;" parent="1" vertex="1">
          <mxGeometry x="500" y="260" width="120" height="60" as="geometry" />
        </mxCell>
        <mxCell id="HCptvA-KU4coDuSBJ7c2-39" value="轮询事件" style="text;html=1;resizable=0;autosize=1;align=center;verticalAlign=middle;points=[];fillColor=none;strokeColor=none;rounded=0;fontSize=18;rotation=-30;strokeWidth=1;fontStyle=0" parent="1" vertex="1">
          <mxGeometry x="620" y="414" width="90" height="30" as="geometry" />
        </mxCell>
        <mxCell id="29Ksuv6mtqIfJAz07HZ2-1" value="注册" style="text;html=1;resizable=0;autosize=1;align=center;verticalAlign=middle;points=[];fillColor=none;strokeColor=none;rounded=0;fontSize=18;rotation=300;" parent="1" vertex="1">
          <mxGeometry x="850" y="230" width="50" height="30" as="geometry" />
        </mxCell>
        <mxCell id="29Ksuv6mtqIfJAz07HZ2-2" value="发现" style="text;html=1;resizable=0;autosize=1;align=center;verticalAlign=middle;points=[];fillColor=none;strokeColor=none;rounded=0;fontSize=18;rotation=54;" parent="1" vertex="1">
          <mxGeometry x="220" y="220" width="50" height="30" as="geometry" />
        </mxCell>
        <mxCell id="UYBg2ok-iSLwJjqC4Fl6-1" value="" style="ellipse;whiteSpace=wrap;html=1;dashed=1;fontSize=18;strokeWidth=1;strokeColor=#D5E8D4;fillColor=none;" vertex="1" parent="1">
          <mxGeometry x="1130" y="230" width="690" height="340" as="geometry" />
        </mxCell>
        <mxCell id="UYBg2ok-iSLwJjqC4Fl6-2" style="rounded=0;orthogonalLoop=1;jettySize=auto;html=1;exitX=0.5;exitY=0;exitDx=0;exitDy=0;entryX=0.5;entryY=1;entryDx=0;entryDy=0;horizontal=1;strokeWidth=1;fontStyle=0;startArrow=classic;startFill=1;strokeColor=#FFFF00;" edge="1" parent="1" source="UYBg2ok-iSLwJjqC4Fl6-4" target="UYBg2ok-iSLwJjqC4Fl6-8">
          <mxGeometry relative="1" as="geometry" />
        </mxCell>
        <mxCell id="UYBg2ok-iSLwJjqC4Fl6-3" style="edgeStyle=none;rounded=0;orthogonalLoop=1;jettySize=auto;html=1;entryX=0.145;entryY=0;entryDx=0;entryDy=4.35;entryPerimeter=0;endArrow=classic;endFill=1;startArrow=classic;startFill=1;horizontal=1;strokeWidth=1;fontStyle=0;exitX=1;exitY=0.5;exitDx=0;exitDy=0;strokeColor=#FFFF00;" edge="1" parent="1" source="UYBg2ok-iSLwJjqC4Fl6-4" target="UYBg2ok-iSLwJjqC4Fl6-14">
          <mxGeometry relative="1" as="geometry" />
        </mxCell>
        <mxCell id="UYBg2ok-iSLwJjqC4Fl6-4" value="R1" style="rounded=1;whiteSpace=wrap;html=1;horizontal=1;strokeWidth=1;fontStyle=0;fontSize=18;fillColor=#d5e8d4;strokeColor=#82b366;" vertex="1" parent="1">
          <mxGeometry x="1200" y="340" width="120" height="60" as="geometry" />
        </mxCell>
        <mxCell id="UYBg2ok-iSLwJjqC4Fl6-5" style="edgeStyle=none;rounded=0;orthogonalLoop=1;jettySize=auto;html=1;exitX=0.25;exitY=0;exitDx=0;exitDy=0;entryX=0.5;entryY=1;entryDx=0;entryDy=0;horizontal=1;strokeWidth=1;fontStyle=0;startArrow=classic;startFill=1;strokeColor=#FFFF00;" edge="1" parent="1" source="UYBg2ok-iSLwJjqC4Fl6-19" target="UYBg2ok-iSLwJjqC4Fl6-9">
          <mxGeometry relative="1" as="geometry" />
        </mxCell>
        <mxCell id="UYBg2ok-iSLwJjqC4Fl6-6" style="edgeStyle=none;orthogonalLoop=1;jettySize=auto;html=1;exitX=0;exitY=0.5;exitDx=0;exitDy=0;entryX=0.855;entryY=0;entryDx=0;entryDy=4.35;entryPerimeter=0;endArrow=classic;endFill=1;startArrow=classic;startFill=1;targetPerimeterSpacing=0;jumpStyle=arc;rounded=0;strokeWidth=1;horizontal=1;fontStyle=0;endSize=6;sketch=0;shadow=0;strokeColor=#FFFF00;" edge="1" parent="1" source="UYBg2ok-iSLwJjqC4Fl6-7" target="UYBg2ok-iSLwJjqC4Fl6-14">
          <mxGeometry relative="1" as="geometry" />
        </mxCell>
        <mxCell id="UYBg2ok-iSLwJjqC4Fl6-7" value="R3" style="rounded=1;whiteSpace=wrap;html=1;horizontal=1;strokeWidth=1;fontStyle=0;fontSize=18;fillColor=#d5e8d4;strokeColor=#82b366;" vertex="1" parent="1">
          <mxGeometry x="1640" y="340" width="120" height="60" as="geometry" />
        </mxCell>
        <mxCell id="UYBg2ok-iSLwJjqC4Fl6-8" value="C1" style="rounded=1;whiteSpace=wrap;html=1;fontSize=18;horizontal=1;strokeWidth=1;fontStyle=0;fillColor=#dae8fc;strokeColor=#6c8ebf;" vertex="1" parent="1">
          <mxGeometry x="1080" y="100" width="120" height="60" as="geometry" />
        </mxCell>
        <mxCell id="UYBg2ok-iSLwJjqC4Fl6-9" value="C2" style="rounded=1;whiteSpace=wrap;html=1;fontSize=18;horizontal=1;strokeWidth=1;fontStyle=0;fillColor=#dae8fc;strokeColor=#6c8ebf;" vertex="1" parent="1">
          <mxGeometry x="1240" y="100" width="120" height="60" as="geometry" />
        </mxCell>
        <mxCell id="UYBg2ok-iSLwJjqC4Fl6-10" style="edgeStyle=none;rounded=0;orthogonalLoop=1;jettySize=auto;html=1;exitX=0.5;exitY=1;exitDx=0;exitDy=0;horizontal=1;strokeWidth=1;fontStyle=0;startArrow=classic;startFill=1;strokeColor=#FFFF00;" edge="1" parent="1" source="UYBg2ok-iSLwJjqC4Fl6-11" target="UYBg2ok-iSLwJjqC4Fl6-7">
          <mxGeometry relative="1" as="geometry">
            <mxPoint x="1890" y="410" as="targetPoint" />
          </mxGeometry>
        </mxCell>
        <mxCell id="UYBg2ok-iSLwJjqC4Fl6-11" value="S1" style="rounded=1;whiteSpace=wrap;html=1;fontSize=18;horizontal=1;strokeWidth=1;fontStyle=0;fillColor=#dae8fc;strokeColor=#6c8ebf;" vertex="1" parent="1">
          <mxGeometry x="1760" y="100" width="120" height="60" as="geometry" />
        </mxCell>
        <mxCell id="UYBg2ok-iSLwJjqC4Fl6-12" style="edgeStyle=none;rounded=0;orthogonalLoop=1;jettySize=auto;html=1;exitX=0.5;exitY=1;exitDx=0;exitDy=0;entryX=0.75;entryY=0;entryDx=0;entryDy=0;horizontal=1;strokeWidth=1;fontStyle=0;startArrow=classic;startFill=1;strokeColor=#FFFF00;" edge="1" parent="1" source="UYBg2ok-iSLwJjqC4Fl6-13" target="UYBg2ok-iSLwJjqC4Fl6-19">
          <mxGeometry relative="1" as="geometry" />
        </mxCell>
        <mxCell id="UYBg2ok-iSLwJjqC4Fl6-13" value="S2" style="rounded=1;whiteSpace=wrap;html=1;fontSize=18;horizontal=1;strokeWidth=1;fontStyle=0;fillColor=#dae8fc;strokeColor=#6c8ebf;" vertex="1" parent="1">
          <mxGeometry x="1600" y="100" width="120" height="60" as="geometry" />
        </mxCell>
        <mxCell id="UYBg2ok-iSLwJjqC4Fl6-14" value="" style="shape=cylinder3;whiteSpace=wrap;html=1;boundedLbl=1;backgroundOutline=1;size=15;horizontal=1;strokeWidth=1;fontStyle=0;fillColor=#ffe6cc;strokeColor=#d79b00;" vertex="1" parent="1">
          <mxGeometry x="1450" y="440" width="60" height="80" as="geometry" />
        </mxCell>
        <mxCell id="UYBg2ok-iSLwJjqC4Fl6-15" value="事件/注册信息" style="text;html=1;resizable=0;autosize=1;align=center;verticalAlign=middle;points=[];fillColor=none;strokeColor=none;rounded=0;fontSize=18;fontStyle=0;strokeWidth=1;fontColor=#FFFF00;" vertex="1" parent="1">
          <mxGeometry x="1420" y="530" width="130" height="30" as="geometry" />
        </mxCell>
        <mxCell id="UYBg2ok-iSLwJjqC4Fl6-16" value="2.写入事件" style="text;html=1;resizable=0;autosize=1;align=center;verticalAlign=middle;points=[];fillColor=none;strokeColor=none;rounded=0;fontSize=18;rotation=0;strokeWidth=1;fontStyle=0;fontColor=#FFFF00;" vertex="1" parent="1">
          <mxGeometry x="1430" y="370" width="100" height="30" as="geometry" />
        </mxCell>
        <mxCell id="UYBg2ok-iSLwJjqC4Fl6-17" value="3.轮询事件" style="text;html=1;resizable=0;autosize=1;align=center;verticalAlign=middle;points=[];fillColor=none;strokeColor=none;rounded=0;fontSize=18;rotation=30;strokeWidth=1;fontStyle=0;fontColor=#FFFF00;" vertex="1" parent="1">
          <mxGeometry x="1325" y="410" width="100" height="30" as="geometry" />
        </mxCell>
        <mxCell id="UYBg2ok-iSLwJjqC4Fl6-18" style="edgeStyle=none;rounded=0;sketch=0;jumpStyle=arc;orthogonalLoop=1;jettySize=auto;html=1;exitX=0.5;exitY=1;exitDx=0;exitDy=0;shadow=0;fontSize=18;startArrow=classic;startFill=1;endArrow=classic;endFill=1;endSize=6;targetPerimeterSpacing=0;strokeWidth=1;strokeColor=#FFFF00;" edge="1" parent="1" source="UYBg2ok-iSLwJjqC4Fl6-19" target="UYBg2ok-iSLwJjqC4Fl6-14">
          <mxGeometry relative="1" as="geometry" />
        </mxCell>
        <mxCell id="UYBg2ok-iSLwJjqC4Fl6-19" value="R2" style="rounded=1;whiteSpace=wrap;html=1;horizontal=1;strokeWidth=1;fontStyle=0;fontSize=18;fillColor=#d5e8d4;strokeColor=#82b366;" vertex="1" parent="1">
          <mxGeometry x="1420" y="260" width="120" height="60" as="geometry" />
        </mxCell>
        <mxCell id="UYBg2ok-iSLwJjqC4Fl6-20" value="轮询事件" style="text;html=1;resizable=0;autosize=1;align=center;verticalAlign=middle;points=[];fillColor=none;strokeColor=none;rounded=0;fontSize=18;rotation=-30;strokeWidth=1;fontStyle=0;fontColor=#FFFF00;" vertex="1" parent="1">
          <mxGeometry x="1540" y="414" width="90" height="30" as="geometry" />
        </mxCell>
        <mxCell id="UYBg2ok-iSLwJjqC4Fl6-21" value="1.注册" style="text;html=1;resizable=0;autosize=1;align=center;verticalAlign=middle;points=[];fillColor=none;strokeColor=none;rounded=0;fontSize=18;rotation=-40;fontColor=#FFFF00;" vertex="1" parent="1">
          <mxGeometry x="1580" y="200" width="70" height="30" as="geometry" />
        </mxCell>
        <mxCell id="UYBg2ok-iSLwJjqC4Fl6-22" value="4.发现" style="text;html=1;resizable=0;autosize=1;align=center;verticalAlign=middle;points=[];fillColor=none;strokeColor=none;rounded=0;fontSize=18;rotation=54;fontColor=#FFFF00;" vertex="1" parent="1">
          <mxGeometry x="1130" y="220" width="70" height="30" as="geometry" />
        </mxCell>
      </root>
    </mxGraphModel>
  </diagram>
</mxfile>
